<svg width="24" height="24" viewBox="0 0 24 24" fill="none" xmlns="http://www.w3.org/2000/svg">
<path d="M3.89844 8.3999C4.29626 8.3999 4.67779 8.24187 4.9591 7.96056C5.2404 7.67926 5.39844 7.29773 5.39844 6.8999C5.39844 6.50208 5.2404 6.12055 4.9591 5.83924C4.67779 5.55794 4.29626 5.3999 3.89844 5.3999C3.50061 5.3999 3.11908 5.55794 2.83778 5.83924C2.55647 6.12055 2.39844 6.50208 2.39844 6.8999C2.39844 7.29773 2.55647 7.67926 2.83778 7.96056C3.11908 8.24187 3.50061 8.3999 3.89844 8.3999ZM8.39844 6.8999C8.39844 6.66121 8.49326 6.43229 8.66204 6.26351C8.83082 6.09472 9.05974 5.9999 9.29844 5.9999H20.6984C20.9371 5.9999 21.1661 6.09472 21.3348 6.26351C21.5036 6.43229 21.5984 6.66121 21.5984 6.8999C21.5984 7.1386 21.5036 7.36752 21.3348 7.5363C21.1661 7.70508 20.9371 7.7999 20.6984 7.7999H9.29844C9.05974 7.7999 8.83082 7.70508 8.66204 7.5363C8.49326 7.36752 8.39844 7.1386 8.39844 6.8999ZM9.29844 11.9999C9.05974 11.9999 8.83082 12.0947 8.66204 12.2635C8.49326 12.4323 8.39844 12.6612 8.39844 12.8999C8.39844 13.1386 8.49326 13.3675 8.66204 13.5363C8.83082 13.7051 9.05974 13.7999 9.29844 13.7999H20.6984C20.9371 13.7999 21.1661 13.7051 21.3348 13.5363C21.5036 13.3675 21.5984 13.1386 21.5984 12.8999C21.5984 12.6612 21.5036 12.4323 21.3348 12.2635C21.1661 12.0947 20.9371 11.9999 20.6984 11.9999H9.29844ZM9.29844 17.9999C9.05974 17.9999 8.83082 18.0947 8.66204 18.2635C8.49326 18.4323 8.39844 18.6612 8.39844 18.8999C8.39844 19.1386 8.49326 19.3675 8.66204 19.5363C8.83082 19.7051 9.05974 19.7999 9.29844 19.7999H20.6984C20.9371 19.7999 21.1661 19.7051 21.3348 19.5363C21.5036 19.3675 21.5984 19.1386 21.5984 18.8999C21.5984 18.6612 21.5036 18.4323 21.3348 18.2635C21.1661 18.0947 20.9371 17.9999 20.6984 17.9999H9.29844ZM5.39844 12.8999C5.39844 13.2977 5.2404 13.6793 4.9591 13.9606C4.67779 14.2419 4.29626 14.3999 3.89844 14.3999C3.50061 14.3999 3.11908 14.2419 2.83778 13.9606C2.55647 13.6793 2.39844 13.2977 2.39844 12.8999C2.39844 12.5021 2.55647 12.1205 2.83778 11.8392C3.11908 11.5579 3.50061 11.3999 3.89844 11.3999C4.29626 11.3999 4.67779 11.5579 4.9591 11.8392C5.2404 12.1205 5.39844 12.5021 5.39844 12.8999ZM3.89844 20.3999C4.29626 20.3999 4.67779 20.2419 4.9591 19.9606C5.2404 19.6793 5.39844 19.2977 5.39844 18.8999C5.39844 18.5021 5.2404 18.1205 4.9591 17.8392C4.67779 17.5579 4.29626 17.3999 3.89844 17.3999C3.50061 17.3999 3.11908 17.5579 2.83778 17.8392C2.55647 18.1205 2.39844 18.5021 2.39844 18.8999C2.39844 19.2977 2.55647 19.6793 2.83778 19.9606C3.11908 20.2419 3.50061 20.3999 3.89844 20.3999Z" fill="#009E9E"/>
</svg>
